<svg width="287" height="288" viewBox="0 0 287 288" fill="none" xmlns="http://www.w3.org/2000/svg">
<path d="M52.1504 77.3953C51.2637 79.1175 49.408 79.8461 47.812 80.2178C45.7727 80.7036 43.6637 80.8324 41.599 81.0458L40.3989 81.3881C40.1718 81.4694 39.9606 81.6022 39.7779 81.7785C39.5949 81.9552 39.4438 82.1719 39.3333 82.4163C39.2225 82.6606 39.1547 82.9282 39.1332 83.2034C39.1116 83.4783 39.1373 83.7558 39.2082 84.0193C39.9508 86.989 40.9724 89.8543 42.2545 92.5642L40.3545 94.7722C39.8162 93.9258 39.7909 92.4428 39.0689 92.5863C38.3754 91.7804 37.5521 91.3866 36.7002 92.4649C35.0346 94.5809 35.3037 98.9785 37.7515 100.193L37.2037 103.361C37.0147 104.469 36.5014 105.467 35.7509 106.184C35 106.901 34.0589 107.294 33.0871 107.295L33.5082 103.545C30.6582 105.22 27.4251 101.599 27.6499 98.6142C27.7956 96.5681 27.3966 95.155 26.0951 93.6719C26.0096 93.5726 26.5321 93.2045 26.4529 93.1052C26.0856 91.8135 26.0349 90.3047 26.3991 89.451C27.0324 87.9274 28.8976 87.0369 28.0394 85.3735C27.6629 84.6485 27.388 83.8585 27.2256 83.033C27.0533 81.9386 27.0846 80.814 27.318 79.7346C27.5514 78.6557 27.9808 77.647 28.5777 76.777C29.8444 75.0106 31.9027 75.4853 33.5842 74.8597C35.6331 74.1237 36.5799 71.5735 38.7237 70.786C39.7909 70.3922 40.7789 70.5725 41.846 70.8559C42.7485 71.0988 43.6415 71.3711 44.5282 71.6949C45.4149 72.0188 46.1939 72.2874 47.0615 71.9857C48.2079 71.6177 49.0914 70.3738 50.3422 70.3628C50.9664 70.3462 51.5772 70.5729 52.0775 71.0068C53.0022 72.9388 53.0085 75.7429 52.1504 77.3953Z" fill="#3FBDF1"/>
<path d="M12.9598 127.223C12.9598 127.223 -21.5156 83.0334 29.2554 60.9828C32.1995 59.7283 35.268 58.9099 38.3881 58.5467C46.4916 57.5457 64.4054 53.9871 66.4701 41.9683" stroke="#CCDDE2" stroke-width="2.055" stroke-miterlimit="10"/>
<path d="M157.683 65.362V65.351" stroke="#CCDDE2" stroke-width="2.055" stroke-miterlimit="10"/>
<path d="M67.2238 144.927V144.916" stroke="black" stroke-width="2.055" stroke-miterlimit="10"/>
<path d="M40.2692 94.4782C39.9316 93.8003 39.5301 93.1681 39.0722 92.594C38.3787 91.7881 37.5553 91.3943 36.7035 92.4726C35.0378 94.5886 35.307 98.9862 37.7548 100.201L37.207 103.369C37.0179 104.477 36.5046 105.474 35.7541 106.191C35.0033 106.908 34.0622 107.302 33.0903 107.303" stroke="black" stroke-width="2.055" stroke-linecap="round" stroke-linejoin="round"/>
<path d="M31.5576 121.323C31.697 120.094 32.0421 116.867 32.3746 113.79C32.6913 110.938 32.9731 108.193 33.084 107.288L33.5083 103.545" stroke="black" stroke-width="2.055" stroke-linecap="round" stroke-linejoin="round"/>
<path d="M51.1086 84.4465C51.1086 84.4465 47.0648 84.6784 46.2826 88.5681" stroke="black" stroke-width="2.055" stroke-miterlimit="10"/>
<path d="M52.5779 94.7247C53.6799 94.6916 55.1112 94.5039 55.6306 93.2049L52.8439 89.6316C52.164 88.7561 51.7619 87.637 51.7039 86.4594C51.5931 84.4833 51.7926 81.3479 50.1649 79.2614" stroke="black" stroke-width="2.055" stroke-miterlimit="10"/>
<path d="M50.195 89.7784C50.6513 89.1918 50.6738 88.3521 50.2457 87.9024C49.8175 87.4523 49.1006 87.5634 48.6446 88.15C48.1883 88.7362 48.1655 89.5764 48.5936 90.0261C49.0218 90.4758 49.7387 90.365 50.195 89.7784Z" fill="black"/>
<path d="M49.921 118.196L47.8215 106.368" stroke="black" stroke-width="2.055" stroke-miterlimit="10"/>
<path d="M103.143 171.427L89.6121 184.285C105.892 213.136 93.5704 218.431 93.5704 218.431C91.1802 218.963 88.7669 219.34 86.3409 219.561C74.5736 220.547 62.5023 217.018 52.8028 209.114C33.1695 193.106 16.0694 161.067 25.1895 133.173C25.9568 130.814 26.8944 128.534 27.992 126.358C28.9378 124.466 30.1421 122.766 31.5576 121.323C34.0352 118.803 37.0863 117.167 40.3445 116.613C43.6023 116.059 46.9289 116.61 49.9243 118.199C51.0709 118.807 52.1555 119.563 53.1574 120.451C58.2843 125.011 62.9456 131.491 66.9641 138.292C70.532 144.442 73.743 150.862 76.5749 157.509C77.3571 159.323 78.0664 161.038 78.6934 162.609C84.3776 159.938 89.1434 155.4 93.5767 150.499C88.2156 162.127 103.143 171.427 103.143 171.427Z" fill="#353642"/>
<path d="M93.6748 180.832C93.4152 181.064 93.146 181.307 92.8768 181.539" stroke="black" stroke-width="2.055" stroke-miterlimit="10"/>
<path d="M53.6704 131.952C57.2592 139.937 60.8483 147.938 64.4371 155.953C67.1446 162.003 71.7204 165.738 78.1645 162.871C85.1755 159.75 90.8312 153.785 96.0625 147.706C101.294 141.626 106.595 135.812 114.147 134.244C123.91 132.217 133.147 138.399 139.797 146.212C140.309 146.807 140.633 147.587 140.716 148.423C140.799 149.259 140.637 150.103 140.256 150.819C140.012 151.277 139.686 151.668 139.3 151.966C138.913 152.265 138.476 152.463 138.018 152.546C137.56 152.631 137.092 152.599 136.646 152.454C136.199 152.309 135.785 152.054 135.43 151.706C132.28 148.582 127.153 144.063 123.587 144.004" stroke="black" stroke-width="2.055" stroke-miterlimit="10"/>
<path d="M113.859 154.723C114.955 155.573 116.475 156.515 117.741 156.515" stroke="black" stroke-width="2.055" stroke-miterlimit="10"/>
<path d="M127.9 145.553C130.237 146.897 131.089 150.827 129.439 153.175C127.347 156.191 124.726 158.655 121.75 160.402C118.495 162.29 116.405 161.138 113.2 158.834" stroke="black" stroke-width="2.055" stroke-miterlimit="10"/>
<path d="M122.491 149.075C122.491 149.075 127.121 150.407 126.998 155.629C126.989 155.852 126.955 156.072 126.896 156.284" stroke="black" stroke-width="2.055" stroke-miterlimit="10"/>
<path d="M119.22 152.364C119.22 152.364 125.43 157.027 122.476 159.96" stroke="black" stroke-width="2.055" stroke-miterlimit="10"/>
<path d="M239.177 170.639C231.862 194.004 211.383 194.662 209.04 194.662C210.021 192.259 210.287 188.038 208.137 180.641C209.578 178.197 210.336 175.297 210.309 172.334C210.283 169.372 209.472 166.491 207.988 164.081C208.017 164.052 208.033 164.011 208.058 163.982C209.082 163.91 210.098 163.731 211.095 163.448C214.629 162.47 221.595 160.32 227.124 157.296C230.874 155.238 235.247 158.536 234.927 163.345C234.927 163.408 234.927 163.467 234.908 163.537C235.64 163.536 236.362 163.741 237.011 164.134C237.66 164.527 238.218 165.096 238.637 165.794C239.056 166.491 239.324 167.296 239.418 168.14C239.512 168.983 239.429 169.841 239.177 170.639Z" fill="#3FBDF1"/>
<path d="M145.307 225.439C142.844 230.352 139.009 234.536 135.304 238.186C122.26 251.015 105.221 257.528 88.1205 257.782C70.9636 257.528 53.8604 250.993 40.7568 238.278C-0.647386 198.1 6.83544 150.661 13.5329 128.695C13.7688 127.936 14.0881 127.215 14.4829 126.55C15.0066 125.66 15.6865 124.908 16.4778 124.345C17.2692 123.782 18.1541 123.42 19.0746 123.282C22.5896 123.845 25.7816 127.234 25.218 132.482C25.218 132.684 25.1483 132.964 25.1325 133.166C16.0188 161.061 33.1251 193.099 52.7458 209.107C61.6472 216.368 72.5469 219.937 83.3769 219.705H83.5004C84.4292 219.683 85.357 219.633 86.2839 219.555C92.367 219.039 98.2792 217.347 104.134 215.297C111.006 212.908 117.802 210.012 124.667 207.985C127.08 207.271 129.499 206.583 131.931 205.939C133.335 205.604 134.77 205.489 136.2 205.596C144.633 206.259 150.558 214.973 145.307 225.439Z" fill="#D7E8F0"/>
<path d="M147.391 225.439C144.927 230.352 141.089 234.536 137.384 238.186C123.821 251.537 105.927 258.058 88.111 257.782C70.954 257.528 53.8509 250.993 40.7473 238.278C-0.647331 198.1 6.83549 150.661 13.533 128.695C13.7689 127.936 14.0882 127.215 14.483 126.55C15.0067 125.66 15.6865 124.908 16.4779 124.345C17.2693 123.782 18.1544 123.42 19.0746 123.282C22.5896 123.845 25.7816 127.234 25.2179 132.482C25.2179 132.684 25.1483 132.964 25.1324 133.166C16.0188 161.061 33.1251 193.099 52.7457 209.107C61.6472 216.368 72.5469 219.937 83.3769 219.705H83.5004C85.1321 219.735 86.7547 219.685 88.3675 219.555C94.4507 219.039 100.36 217.347 106.218 215.297C113.09 212.908 119.885 210.012 126.751 207.985C129.16 207.271 131.583 206.583 134.012 205.939C134.734 205.767 135.465 205.653 136.2 205.596C145.681 204.857 153.066 214.127 147.391 225.439Z" fill="#D7E8F0"/>
<path d="M90.9704 257.715L95.1378 264.567C95.1378 264.567 120.354 265.708 134.154 279.169C136.707 281.661 135.18 286.5 131.849 286.5C131.014 286.503 130.204 286.162 129.566 285.536C126.307 282.356 113.859 272.361 85.7011 272.06C58.2651 271.762 47.7423 281.628 44.8322 285.223C44.5003 285.629 44.1003 285.952 43.657 286.172C43.2137 286.391 42.7365 286.503 42.2545 286.5H41.713C38.293 286.5 36.8458 281.48 39.547 279.044C51.0673 268.634 76.8915 265.314 76.8915 265.314L81.2995 257.586" fill="#353642"/>
<path d="M202.567 219.72C202.567 219.72 210.29 228.246 207.881 254.68C207.705 256.567 207.14 258.377 206.234 259.957L205.395 261.429C204.018 263.824 201.943 265.56 199.552 266.316C194.508 267.917 185.356 271.626 179.704 278.655C177.316 281.632 179.092 286.482 182.595 286.482C183.248 286.485 183.891 286.299 184.468 285.942C185.044 285.585 185.535 285.067 185.898 284.436C188.2 280.41 195.17 271.862 211.981 272.042C230.943 272.244 238.581 281.006 241.029 284.782C241.367 285.309 241.806 285.736 242.312 286.032C242.817 286.327 243.374 286.481 243.939 286.482C244.648 286.48 245.341 286.239 245.933 285.786C246.525 285.334 246.991 284.69 247.273 283.935C247.555 283.179 247.641 282.344 247.521 281.533C247.401 280.721 247.079 279.968 246.596 279.365C239.202 270.029 230.158 266.548 225.167 265.256C222.66 264.628 220.445 262.934 218.958 260.505C217.819 258.632 217.171 256.416 217.092 254.124C216.814 245.929 216.668 226.035 221.447 219.727" fill="#353642"/>
<path d="M104.198 215.307C117.78 207.645 132.52 202.618 147.014 197.886C161.6 193.124 176.328 188.969 191.1 185.065C197.003 183.508 202.96 182.121 208.834 180.365" stroke="black" stroke-width="2.055" stroke-miterlimit="10"/>
<path d="M116.94 156.409H116.95H116.956" stroke="black" stroke-width="2.055" stroke-miterlimit="10"/>
<path d="M115.417 155.412C114.565 156.391 111.525 161.62 110.762 162.559C106.57 167.78 102.116 172.71 97.4242 177.323C96.243 178.464 94.9922 179.641 93.6749 180.833C93.4152 181.065 93.1461 181.308 92.8769 181.54C83.9469 189.415 72.2936 196.996 61.5269 192.138C61.2419 192.017 60.9633 191.877 60.6878 191.734C44.1736 183.141 32.6311 161.62 31.6241 140.847C31.5893 140.169 31.5703 139.496 31.564 138.83C31.4753 133.152 32.1973 127.473 36.8839 124.478" stroke="black" stroke-width="2.055" stroke-miterlimit="10"/>
<path d="M25.2147 133.092L25.2812 132.489C26.3326 122.693 14.3626 119.388 11.5221 128.695C4.82778 150.657 -2.65821 198.085 38.7554 238.271C65.4852 264.218 108.761 264.399 135.389 238.186C139.094 234.539 142.929 230.348 145.396 225.435C151.637 213.011 142.106 203.049 131.355 206.107" stroke="black" stroke-width="2.055" stroke-miterlimit="10"/>
<path d="M90.9704 257.715L95.1378 264.567C95.1378 264.567 120.354 265.708 134.154 279.169C136.707 281.661 135.18 286.5 131.849 286.5C131.014 286.503 130.204 286.162 129.566 285.536C126.307 282.356 113.859 272.361 85.7011 272.06C58.2651 271.762 47.7423 281.628 44.8322 285.223C44.5003 285.629 44.1003 285.952 43.657 286.172C43.2137 286.391 42.7365 286.503 42.2545 286.5H41.713C38.293 286.5 36.8458 281.48 39.547 279.044C51.0673 268.634 76.8915 265.314 76.8915 265.314L81.2995 257.586" stroke="black" stroke-width="2.055" stroke-miterlimit="10"/>
<path d="M76.8916 156.921C87.4619 153.609 91.8161 136.28 93.5704 124.629" stroke="black" stroke-width="2.055" stroke-miterlimit="10"/>
<path d="M66.9546 138.303C69.891 137.856 72.6799 136.542 75.0543 134.485C77.429 132.429 79.31 129.699 80.5174 126.556C80.7701 125.931 80.893 125.246 80.8765 124.556C80.86 123.866 80.7046 123.19 80.4224 122.582C79.2697 120.102 77.5502 117.228 77.9587 114.254C78.2532 112.157 79.7384 110.681 81.4421 110.206C82.3056 109.943 83.2151 109.961 84.0704 110.258C84.5831 110.427 85.0571 110.726 85.458 111.134C85.8589 111.542 86.1766 112.048 86.3884 112.617C86.8032 113.746 86.3092 114.865 85.5461 115.601C84.7829 116.337 83.8899 116.598 82.9589 116.893C82.8386 116.933 82.5092 117.014 82.1451 117.095" stroke="black" stroke-width="2.055" stroke-miterlimit="10"/>
<path d="M208.821 180.358C208.821 180.358 229.658 175.287 233.572 167.983C234.305 166.651 234.763 165.139 234.908 163.567" stroke="black" stroke-width="2.055" stroke-miterlimit="10"/>
<path d="M106.291 167.883C142.635 163.397 183.656 164.06 183.656 164.06H206.677C208.165 164.062 209.648 163.859 211.095 163.456C214.629 162.477 221.595 160.332 227.124 157.303C230.874 155.246 235.247 158.543 234.927 163.357C234.927 163.416 234.927 163.478 234.908 163.548C235.639 163.548 236.358 163.753 237.006 164.145C237.654 164.538 238.211 165.106 238.63 165.801C239.048 166.497 239.317 167.299 239.412 168.141C239.507 168.982 239.427 169.838 239.177 170.636C231.412 195.435 208.821 194.659 208.821 194.659C205.933 194.758 203.051 194.891 200.16 195.064C174.691 196.503 149.446 200.657 124.734 207.992C117.868 210.019 111.073 212.912 104.201 215.304C98.3426 217.361 92.4241 219.043 86.3409 219.558C74.5736 220.548 62.5023 217.015 52.8028 209.11C31.5577 191.785 13.2733 155.662 27.992 126.34C33.1885 115.991 44.9558 113.158 53.1575 120.452C64.7253 130.737 73.9656 150.775 78.7061 162.595" stroke="black" stroke-width="2.055" stroke-miterlimit="10"/>
<path d="M238.695 219.72H188.117" stroke="black" stroke-width="2.055" stroke-miterlimit="10"/>
<path d="M177.908 207.848C177.916 204.701 178.994 201.687 180.908 199.461C182.822 197.236 185.417 195.982 188.124 195.972H238.708C241.416 195.981 244.011 197.235 245.925 199.46C247.84 201.685 248.919 204.701 248.927 207.848" stroke="black" stroke-width="2.055" stroke-miterlimit="10"/>
<path d="M249.921 212.058C249.924 213.065 249.755 214.063 249.424 214.994C249.093 215.926 248.608 216.771 247.995 217.483C247.382 218.195 246.653 218.76 245.852 219.143C245.051 219.527 244.192 219.723 243.325 219.72H183.475C181.977 219.555 180.594 218.714 179.624 217.377C178.654 216.039 178.175 214.313 178.288 212.57C178.402 210.826 179.1 209.203 180.232 208.052C181.364 206.899 182.84 206.31 184.343 206.409H244.193C245.255 206.407 246.302 206.704 247.244 207.275C248.186 207.847 248.995 208.674 249.601 209.688C249.813 210.454 249.921 211.253 249.921 212.058Z" fill="#D7E8F0"/>
<path d="M249.921 212.058C249.924 213.065 249.755 214.063 249.424 214.994C249.093 215.925 248.608 216.771 247.995 217.483C247.382 218.195 246.653 218.759 245.852 219.143C245.051 219.527 244.192 219.723 243.325 219.719H183.475C182.597 219.742 181.724 219.56 180.907 219.185C180.09 218.81 179.345 218.249 178.718 217.535C178.09 216.821 177.591 215.969 177.25 215.028C176.91 214.087 176.734 213.077 176.734 212.056C176.734 211.035 176.91 210.024 177.25 209.083C177.591 208.142 178.09 207.29 178.718 206.576C179.345 205.862 180.09 205.301 180.907 204.926C181.724 204.551 182.597 204.37 183.475 204.392H243.325C244.718 204.391 246.076 204.903 247.204 205.855C248.331 206.806 249.17 208.148 249.601 209.688C249.813 210.453 249.921 211.253 249.921 212.058Z" stroke="black" stroke-width="2.055" stroke-miterlimit="10"/>
<path d="M93.4563 124.356L93.336 125.538C93.2809 126.074 93.0589 126.568 92.7119 126.927C92.3645 127.285 91.9164 127.484 91.4518 127.485H84.8747C84.4101 127.484 83.962 127.285 83.6147 126.927C83.2676 126.568 83.0456 126.074 82.9905 125.538L82.1418 117.074C82.506 116.993 82.8354 116.912 82.9557 116.871C83.8867 116.577 84.7892 116.327 85.5429 115.58C86.2965 114.833 86.8095 113.74 86.3852 112.595C86.1733 112.027 85.8557 111.52 85.4548 111.113C85.0539 110.704 84.5799 110.405 84.0672 110.236C83.2116 109.94 82.3024 109.922 81.4388 110.185L81.2394 108.168C81.2099 107.86 81.2368 107.548 81.3182 107.253C81.3993 106.957 81.5332 106.685 81.7109 106.454C81.8885 106.223 82.1064 106.038 82.3496 105.911C82.5931 105.784 82.8569 105.718 83.1235 105.717H93.2157C93.4823 105.718 93.7455 105.785 93.9887 105.912C94.2315 106.039 94.4488 106.224 94.6261 106.455C94.8034 106.687 94.9371 106.959 95.0181 107.254C95.0992 107.549 95.1261 107.86 95.0967 108.168L94.8623 110.468" stroke="black" stroke-width="2.055" stroke-miterlimit="10"/>
<path d="M94.3336 115.727L94.324 115.808" stroke="black" stroke-width="2.055" stroke-miterlimit="10"/>
<path d="M93.8396 120.588V120.555" stroke="black" stroke-width="2.055" stroke-miterlimit="10"/>
<path d="M93.9345 120.587C93.9063 120.582 93.8771 120.582 93.849 120.587C93.8091 120.582 93.7685 120.582 93.7286 120.587C93.3182 120.589 92.9234 120.77 92.6222 121.093C92.3211 121.417 92.1355 121.861 92.1022 122.337C92.0693 122.812 92.1912 123.284 92.4436 123.66C92.696 124.036 93.0608 124.288 93.4658 124.366C93.6403 124.407 93.8202 124.407 93.9946 124.366C94.785 124.22 95.5067 123.756 96.034 123.056C96.7367 121.713 97.2249 120.233 97.4748 118.688C97.4792 118.673 97.4792 118.656 97.4748 118.64C97.668 117.502 97.7414 116.34 97.6933 115.181M97.6933 115.181C97.6933 114.684 97.6395 114.191 97.5888 113.709C97.4922 112.903 97.1749 112.154 96.6841 111.573C96.1929 110.992 95.5545 110.609 94.8623 110.482C94.8275 110.482 94.7863 110.482 94.7515 110.46C93.4215 110.268 91.5563 110.853 91.2111 112.598C90.8945 114.173 92.3638 115.523 93.5703 115.645C93.5703 115.645 93.887 115.693 94.3335 115.726C95.2265 115.796 96.7116 115.785 97.6933 115.181ZM97.6933 115.181C97.8377 115.094 97.9735 114.989 98.0986 114.868" stroke="black" stroke-width="2.055" stroke-miterlimit="10"/>
<path d="M95.3214 115.812H95.1029H93.4151H92.6709C92.1677 115.813 91.6845 116.039 91.32 116.442C90.9552 116.845 90.7374 117.395 90.7108 117.979C90.6861 118.547 90.8435 119.104 91.1525 119.545C91.4613 119.985 91.8995 120.277 92.3828 120.364C94.5678 120.772 97.0631 120.857 97.4906 118.583" stroke="black" stroke-width="2.055" stroke-miterlimit="10"/>
<path d="M202.567 219.72C202.567 219.72 210.29 228.246 207.881 254.68C207.705 256.567 207.14 258.377 206.234 259.957L205.395 261.429C204.018 263.824 201.943 265.56 199.552 266.316C194.508 267.917 185.356 271.626 179.704 278.655C177.316 281.632 179.092 286.482 182.595 286.482C183.248 286.485 183.891 286.299 184.468 285.942C185.044 285.585 185.535 285.067 185.898 284.436C188.2 280.41 195.17 271.862 211.981 272.042C230.943 272.244 238.581 281.006 241.029 284.782C241.367 285.309 241.806 285.736 242.312 286.032C242.817 286.327 243.374 286.481 243.939 286.482C244.648 286.48 245.341 286.239 245.933 285.786C246.525 285.334 246.991 284.69 247.273 283.935C247.555 283.179 247.641 282.344 247.521 281.533C247.401 280.721 247.079 279.968 246.596 279.365C239.202 270.029 230.158 266.548 225.167 265.256C222.66 264.628 220.445 262.934 218.958 260.505C217.819 258.632 217.171 256.416 217.092 254.124C216.814 245.929 216.668 226.035 221.447 219.727" stroke="black" stroke-width="2.055" stroke-miterlimit="10"/>
<path d="M186.512 157.935V158.532C186.512 162.613 183.681 163.316 181.236 163.386L133.923 164.666C131.849 164.725 130.104 162.62 130.06 159.985V159.875C130.06 157.299 131.694 155.146 133.739 155.091C133.739 155.091 160.21 154.222 180.704 153.567C181.097 155.01 182.047 156.121 183.238 156.993C184.224 157.679 185.364 158.007 186.512 157.935Z" stroke="black" stroke-width="2.055" stroke-miterlimit="10"/>
<path d="M211.662 99.7546C211.664 100.426 211.532 101.089 211.275 101.69L190.116 152.099C189.867 152.684 189.512 153.199 189.074 153.608C188.637 154.017 188.128 154.309 187.582 154.465C186.709 154.725 185.784 154.616 184.973 154.156C184.323 153.784 183.776 153.207 183.395 152.492C183.014 151.776 182.813 150.95 182.816 150.108C182.818 149.901 182.831 149.695 182.854 149.49C182.911 149.034 183.028 148.59 183.203 148.176L204.359 97.7601C204.741 96.8555 205.376 96.1276 206.16 95.6956C206.943 95.2639 207.829 95.1528 208.674 95.3813C209.519 95.6095 210.272 96.1637 210.811 96.953C211.35 97.7428 211.643 98.7209 211.643 99.7289L211.662 99.7546Z" stroke="black" stroke-width="2.055" stroke-miterlimit="10"/>
<path d="M40.3577 94.7795C40.3324 94.6765 40.2976 94.5771 40.2691 94.4778C40.2406 94.3784 40.1994 94.2643 40.1741 94.1539" stroke="black" stroke-width="2.055" stroke-linecap="round" stroke-linejoin="round"/>
<path d="M40.3577 94.7832L41.0068 94.0252L42.2482 92.5642" stroke="black" stroke-width="2.055" stroke-linecap="round" stroke-linejoin="round"/>
<path d="M47.6632 96.7789C47.6632 96.7789 48.496 99.6677 51.6785 99.8628" stroke="black" stroke-width="2.055" stroke-miterlimit="10"/>
<path d="M33.5082 103.545C30.6582 105.22 27.425 101.599 27.6499 98.6141C27.7955 96.568 27.3965 95.1553 26.095 93.6719C26.0095 93.5725 25.9304 93.4695 25.8544 93.3701C25.3588 92.7438 25.0367 91.9588 24.9294 91.1168C24.822 90.2752 24.9348 89.4152 25.2527 88.6487C25.8449 87.0479 27.121 86.1095 26.2344 84.3836C25.8452 83.6372 25.5611 82.8236 25.392 81.9731C25.215 80.8456 25.2483 79.6871 25.4893 78.5754C25.7302 77.464 26.1732 76.4255 26.7885 75.5295C28.0932 73.6895 30.218 74.1973 31.9629 73.5533C34.0624 72.7768 35.044 70.153 37.248 69.3471C38.35 68.9459 39.3729 69.1263 40.4749 69.417C41.4027 69.6709 42.3337 69.9543 43.2362 70.2855C44.1387 70.6167 44.962 70.9 45.8645 70.5872C47.0457 70.1861 47.9545 68.9239 49.2402 68.9128C50.5258 68.9018 51.5138 69.7813 52.0902 71.0104C53.0022 72.9387 53.0085 75.7429 52.1503 77.4063C51.2637 79.1285 49.408 79.8571 47.812 80.2288C45.7727 80.7146 43.6637 80.8434 41.599 81.0568L40.3988 81.3991C39.9422 81.5639 39.5606 81.9319 39.3374 82.4232C39.1141 82.9145 39.0676 83.4886 39.2082 84.0192C39.9508 86.989 40.9723 89.8546 42.2545 92.5642" stroke="black" stroke-width="2.055" stroke-miterlimit="10"/>
<path d="M42.2483 103.968C42.2483 103.968 48.5309 109.315 52.1124 106.367C55.6939 103.42 53.6704 94.7792 53.6704 94.7792" stroke="black" stroke-width="2.055" stroke-linecap="round" stroke-linejoin="round"/>
<path d="M86.6417 102.026C86.6417 102.026 83.9722 99.9282 85.6695 97.7865C87.3668 95.6447 85.1058 92.8185 85.1058 92.8185" stroke="black" stroke-width="2.055" stroke-miterlimit="10"/>
<path d="M89.1053 102.39C89.1053 102.39 90.8723 101.003 89.7387 99.582C88.605 98.1615 90.1155 96.27 90.1155 96.27" stroke="black" stroke-width="2.055" stroke-miterlimit="10"/>
<path d="M101.281 82.4012C120.505 82.4012 136.089 64.2908 136.089 41.9506C136.089 19.6104 120.505 1.5 101.281 1.5C82.0574 1.5 66.4733 19.6104 66.4733 41.9506C66.4733 64.2908 82.0574 82.4012 101.281 82.4012Z" stroke="#CCDDE2" stroke-width="2.055" stroke-miterlimit="10"/>
<path d="M101.281 64.1656C111.839 64.1656 120.398 54.2189 120.398 41.9494C120.398 29.6796 111.839 19.7333 101.281 19.7333C90.7229 19.7333 82.1641 29.6796 82.1641 41.9494C82.1641 54.2189 90.7229 64.1656 101.281 64.1656Z" stroke="#CCDDE2" stroke-width="2.055" stroke-miterlimit="10"/>
<path d="M101.281 45.7579C103.091 45.7579 104.559 44.0526 104.559 41.9491C104.559 39.8456 103.091 38.1403 101.281 38.1403C99.4711 38.1403 98.0037 39.8456 98.0037 41.9491C98.0037 44.0526 99.4711 45.7579 101.281 45.7579Z" stroke="#CCDDE2" stroke-width="2.055" stroke-miterlimit="10"/>
<path d="M108.067 29.2322L103.007 38.7119" stroke="#CCDDE2" stroke-width="2.055" stroke-miterlimit="10"/>
<path d="M101.281 19.7333V23.6856" stroke="#CCDDE2" stroke-width="2.055" stroke-miterlimit="10"/>
<path d="M120.398 41.9498H117.175" stroke="#CCDDE2" stroke-width="2.055" stroke-miterlimit="10"/>
<path d="M101.281 64.17V60.3281" stroke="#CCDDE2" stroke-width="2.055" stroke-miterlimit="10"/>
<path d="M82.1609 41.9498H85.0679" stroke="#CCDDE2" stroke-width="2.055" stroke-miterlimit="10"/>
<path d="M134.642 109.206C141.795 109.206 147.594 102.467 147.594 94.1547C147.594 85.842 141.795 79.1035 134.642 79.1035C127.489 79.1035 121.69 85.842 121.69 94.1547C121.69 102.467 127.489 109.206 134.642 109.206Z" fill="#3FBDF1"/>
<path d="M138.901 89.1275C138.719 88.6381 138.473 88.184 138.173 87.7806C137.66 87.0752 136.943 86.6111 136.156 86.4757C135.37 86.3403 134.568 86.5427 133.901 87.0446C133.466 87.3744 133.102 87.8167 132.838 88.3371C132.575 88.8574 132.418 89.4414 132.381 90.0438C131.699 89.7535 130.955 89.7285 130.26 89.9728C129.565 90.2168 128.957 90.7173 128.528 91.3981C128.099 92.0789 127.872 92.9032 127.882 93.747C127.891 94.5905 128.137 95.4078 128.581 96.0754C129.509 97.4811 131.086 98.4048 132.514 98.9421C133.263 99.2207 134.034 99.4106 134.816 99.5088C135.212 99.5603 137.47 99.9136 137.666 99.5088C139.075 96.9475 140.076 92.2555 138.901 89.1275Z" fill="white"/>
<g opacity="0.72">
<path opacity="0.72" d="M166.923 87.9241C170.862 87.9241 174.054 84.2139 174.054 79.6367C174.054 75.0599 170.862 71.3494 166.923 71.3494C162.985 71.3494 159.792 75.0599 159.792 79.6367C159.792 84.2139 162.985 87.9241 166.923 87.9241Z" fill="#3FBDF1"/>
<path opacity="0.72" d="M170.017 81.1047C170.193 80.8957 170.341 80.6561 170.454 80.3945C170.657 79.9433 170.712 79.4211 170.607 78.9265C170.503 78.4319 170.247 77.9984 169.887 77.7081C169.652 77.5193 169.382 77.3964 169.099 77.3489C168.816 77.3018 168.527 77.3316 168.256 77.4358C168.241 76.9713 168.096 76.5253 167.843 76.165C167.591 75.8048 167.244 75.5497 166.856 75.4382C166.468 75.3271 166.059 75.3654 165.691 75.5479C165.323 75.7301 165.017 76.0465 164.817 76.4495C164.429 77.3607 164.278 78.3841 164.383 79.3935C164.419 79.8918 164.497 80.3849 164.618 80.8655C164.678 81.1121 164.994 82.5215 165.21 82.5657C166.625 82.8417 168.893 82.4553 170.017 81.1047Z" fill="white"/>
</g>
<path d="M156.704 118.772L153.314 127.102C152.085 130.123 153.195 133.729 155.794 135.158L162.962 139.097C165.562 140.526 168.665 139.235 169.895 136.214L173.284 127.884C174.513 124.864 173.403 121.257 170.804 119.829L163.636 115.889C161.036 114.461 157.933 115.751 156.704 118.772Z" fill="#3FBDF1"/>
<path d="M171.35 129.343L168.896 135.374C168.381 136.63 167.459 137.599 166.332 138.069C165.205 138.538 163.963 138.47 162.879 137.88L156.653 134.458C155.573 133.859 154.74 132.787 154.337 131.477C153.934 130.168 153.992 128.725 154.5 127.466L154.665 127.061C156.356 125.493 159.279 123.381 160.346 126.255C161.882 130.406 163.88 129.067 166.432 127.33C168.563 125.865 171.122 125.375 171.35 129.343Z" fill="white"/>
<path d="M161.707 122.932C162.765 122.932 163.623 121.935 163.623 120.706C163.623 119.476 162.765 118.479 161.707 118.479C160.649 118.479 159.792 119.476 159.792 120.706C159.792 121.935 160.649 122.932 161.707 122.932Z" fill="white"/>
<path d="M194.394 91.4495C194.775 92.2565 195.051 93.1247 195.214 94.0255C195.504 95.6734 195.421 97.381 194.972 98.9799C194.524 100.579 193.725 102.016 192.655 103.148C191.807 104.02 190.727 104.701 189.869 105.614C189.243 106.242 188.782 107.062 188.539 107.98C188.494 108.294 188.386 108.591 188.222 108.845C187.722 109.47 187.231 108.477 186.797 108.308C186.098 108.043 185.339 108.086 184.666 108.429C182.895 109.29 180.922 109.412 179.082 108.775C177.243 108.139 175.649 106.782 174.571 104.936C173.494 103.089 173 100.867 173.171 98.645C173.343 96.423 174.171 94.3387 175.514 92.7449C176.841 91.1735 178.576 90.1689 180.264 89.1458C181.74 88.2369 183.209 87.269 184.811 86.7244C188.567 85.418 192.576 87.5929 194.394 91.4495Z" fill="#3FBDF1"/>
<path d="M179.27 102.817C180.267 102.817 181.075 101.878 181.075 100.719C181.075 99.561 180.267 98.6218 179.27 98.6218C178.273 98.6218 177.465 99.561 177.465 100.719C177.465 101.878 178.273 102.817 179.27 102.817Z" fill="white"/>
<path d="M184.131 99.7954C185.128 99.7954 185.936 98.8563 185.936 97.6978C185.936 96.5394 185.128 95.6002 184.131 95.6002C183.134 95.6002 182.326 96.5394 182.326 97.6978C182.326 98.8563 183.134 99.7954 184.131 99.7954Z" fill="white"/>
<path d="M188.691 96.9622C189.687 96.9622 190.496 96.023 190.496 94.8646C190.496 93.7061 189.687 92.767 188.691 92.767C187.694 92.767 186.886 93.7061 186.886 94.8646C186.886 96.023 187.694 96.9622 188.691 96.9622Z" fill="white"/>
<path d="M133.657 27.079C133.657 27.079 145.542 69.7964 191.29 67.4891C206.49 65.2811 224.582 67.4891 240.69 92.1451C265.178 129.652 255.346 171.434 244.218 197.956" stroke="#CCDDE2" stroke-width="2.055" stroke-miterlimit="10"/>
<g opacity="0.54">
<path opacity="0.54" d="M199.787 43.8557C199.742 44.5 199.656 45.1396 199.53 45.7693L198.105 52.9526C197.668 55.1606 197.177 57.4717 195.822 59.0835C193.289 62.0864 189.077 61.3982 185.556 60.4893L176.911 58.2592C174.925 57.7477 172.908 57.2214 171.128 56.0769C169.349 54.9325 167.803 53.0594 167.392 50.7446C167.075 49.0371 167.414 47.2707 167.737 45.5705L169.041 38.6742C169.475 36.4147 169.963 34.0301 171.366 32.3851C173.864 29.4595 178.016 30.1256 181.467 30.9977L190.321 33.2352C195.66 34.5747 200.211 37.4525 199.787 43.8557Z" fill="#3FBDF1"/>
<path opacity="0.54" d="M187.864 44.0474C188.234 44.4474 188.508 44.9538 188.656 45.5153C188.804 46.0773 188.823 46.6745 188.71 47.2472C188.596 47.8198 188.355 48.3475 188.01 48.7777C187.666 49.2075 187.23 49.5243 186.746 49.6962L184.112 50.6346L181.477 51.573C180.993 51.7448 180.479 51.7658 179.987 51.6337C179.494 51.5016 179.04 51.2216 178.67 50.8208C178.3 50.4204 178.027 49.9141 177.879 49.3521C177.731 48.7906 177.712 48.1933 177.826 47.6207L178.459 44.5L179.077 41.3831C179.189 40.8101 179.43 40.282 179.775 39.8515C180.119 39.4213 180.555 39.1037 181.038 38.9315C181.522 38.7589 182.036 38.7379 182.529 38.8696C183.022 39.0017 183.476 39.2822 183.846 39.6829L185.863 41.8652L187.864 44.0474Z" fill="white"/>
</g>
<path d="M13.0769 286.483H286.525" stroke="black" stroke-width="2.055" stroke-miterlimit="10"/>
</svg>
