<svg width="286" height="231" viewBox="0 0 286 231" fill="none" xmlns="http://www.w3.org/2000/svg">
<path d="M246.791 145.544C242.323 115.844 226.502 89.2671 200.798 79.7549C194.223 77.3353 187.499 75.4823 180.683 74.2119V74.2519C180.328 76.7174 179.486 79.0574 178.223 81.0925C175.544 85.3052 171.851 88.7655 167.576 90.5683C163.213 92.422 157.807 92.6619 153.757 89.7469C151.319 87.9949 148.953 84.909 148.526 81.5796C148.038 77.8285 149.704 74.2774 152.047 71.7985C132.186 71.9838 113.502 75.7349 98.5305 80.0057C99.0495 82.4995 99.768 84.933 100.677 87.2752C101.95 90.5403 103.749 93.5001 105.978 95.9986C108.76 92.836 111.195 89.2965 113.23 85.4578C115.177 86.1892 116.894 87.5616 118.167 89.4041C119.44 91.2465 120.213 93.4776 120.39 95.8205V95.9405C121.175 104.449 114.038 110.843 108.04 114.776C101.111 119.348 93.3878 122.772 85.8005 125.618C82.6718 126.796 78.6058 127.799 75.303 126.571C74.9474 126.44 74.6003 126.281 74.2643 126.094C70.971 124.241 68.767 120.355 67.0475 116.804C62.1487 106.718 58.963 95.7224 56.8033 84.4365C41.8155 86.6355 40.0992 74.9861 39.2093 72.1292L26.3875 113.271C25.7149 116.228 25.6424 119.323 26.1747 122.318C26.7073 125.313 27.8312 128.127 29.4598 130.545C31.0881 132.964 33.1781 134.921 35.5686 136.267C37.9594 137.614 40.5871 138.313 43.25 138.311H96.3297L120.441 209.297L127.274 229.445H166.307C163.14 229.445 161.408 228.558 160.151 227.111C158.852 225.62 158.121 223.6 158.118 221.492C158.118 217.13 161.237 213.554 166.307 213.554H166.664C166.281 213.554 165.914 213.514 165.531 213.474C165.768 213.444 166.004 213.399 166.237 213.339C165.986 213.332 165.735 213.311 165.486 213.274C167.773 212.964 169.892 211.742 171.473 209.82C173.054 207.898 173.996 205.4 174.135 202.762C174.141 202.625 174.141 202.488 174.135 202.351V202.141C174.08 199.436 173.179 196.844 171.598 194.839C170.015 192.833 167.857 191.548 165.518 191.218C165.784 191.193 166.037 191.167 166.294 191.167C166.063 191.102 165.806 191.062 165.566 191.022C165.946 190.982 166.329 190.953 166.696 190.953L195.253 191.127L200.507 191.153H206.742C207.03 191.153 207.321 191.153 207.597 191.193L216.859 191.247L223.047 191.287C225.633 191.312 228.105 192.511 229.923 194.623C231.74 196.735 232.756 199.587 232.746 202.555C232.743 204.234 232.404 205.888 231.755 207.393C234.41 207.003 236.872 205.594 238.741 203.395C243.197 198.172 245.115 190.353 246.442 183.404C248.789 171.024 248.65 157.978 246.791 145.544ZM174.641 146.38C169.261 155.885 160.1 155.031 160.1 155.031C160.1 155.031 159.34 155.881 157.567 152.261C155.793 148.641 150.742 146.165 150.742 146.165C150.34 149.8 149.507 155.325 141.242 148.165C132.977 141.004 135.47 130.565 136.176 125.051C136.882 119.537 139.697 117.709 139.697 117.709L143.022 115.695C143.022 115.695 133.405 112.857 132.943 112.751C132.48 112.646 123.914 104.413 132.607 102.24C141.299 100.066 154.85 108.709 157.468 110.418C160.087 112.126 175.392 126.985 175.392 126.985C175.392 126.985 180.05 136.89 174.641 146.38Z" fill="#353642"/>
<path d="M56.7907 84.4429C56.7907 84.4429 64.0392 83.4325 66.753 77.4933L64.3875 92.7265C64.3875 92.7265 93.2232 81.4588 98.5115 80.0049C98.5115 80.0049 100.215 92.6139 106.998 95.9978L113.997 85.7842C113.997 85.7842 122.771 88.3285 120.371 102.053C117.971 115.778 84.7713 127.249 79.141 126.984C73.5107 126.719 67.4497 122.742 61.243 101.374L56.7907 84.4429Z" fill="#353642"/>
<path d="M68.5992 50.5093C70.4358 53.9405 72.282 57.3644 74.1883 60.7447C75.3632 62.8275 77.5038 65.797 75.227 67.9743C74.486 68.6263 73.5911 69.0065 72.6588 69.0647C71.1958 69.2137 69.66 68.8102 68.7702 67.3672L64.3368 58.9346C63.4533 57.2528 62.0502 56.0148 60.4073 55.4664C58.7641 54.9182 57.0016 55.1003 55.4702 55.9759" stroke="black" stroke-width="2.735" stroke-miterlimit="10"/>
<path d="M85.3667 61.616C86.5257 64.7782 85.7403 66.8173 84.385 67.8423C82.1683 69.5107 79.2012 68.711 77.6305 66.2757L68.615 50.5264" stroke="black" stroke-width="2.735" stroke-miterlimit="10"/>
<path d="M76.2308 45.9296C79.5115 50.5093 83.6503 59.0147 85.9398 62.5658C88.2293 66.117 91.7697 63.9761 91.7697 63.9761C94.645 62.1987 94.1573 59.2509 92.9002 55.6707C89.8032 46.8819 85.3825 41.0372 80.452 37.2062C65.1728 25.3423 49.4978 34.0948 44.8333 54.573L26.3875 113.271C25.7149 116.228 25.6424 119.323 26.1747 122.318C26.7073 125.313 27.8312 128.127 29.4598 130.545C31.0881 132.964 33.1781 134.921 35.5686 136.267C37.9594 137.613 40.5871 138.312 43.25 138.31H96.3297L127.284 229.448" stroke="black" stroke-width="2.735" stroke-miterlimit="10"/>
<path d="M95.1833 51.6394C98.9833 50.1274 98.8092 43.1705 93.4163 40.8224C87.4598 38.2272 76.8832 34.5561 74.2263 33.6401C74.2099 33.6256 74.1899 33.6169 74.1693 33.6147C73.9825 33.5493 73.8527 33.4948 73.7513 33.4693L73.6025 33.4148" stroke="black" stroke-width="2.735" stroke-miterlimit="10"/>
<path d="M151.328 121.197C148.003 116.61 138.902 114.011 132.962 112.754C131.963 112.539 131.053 111.957 130.367 111.096C129.682 110.235 129.259 109.142 129.162 107.981C129.093 107.198 129.171 106.407 129.393 105.662C129.747 104.518 130.425 103.544 131.319 102.896C132.213 102.247 133.271 101.962 134.323 102.086C144.457 103.263 154.907 106.924 162.636 114.807C162.636 114.807 200.108 147.629 204.582 150.824C206.428 152.111 208.151 150.591 206.9 148.571L206.507 147.8C204.305 143.462 201.698 139.411 198.733 135.718" stroke="black" stroke-width="2.735" stroke-miterlimit="10"/>
<path d="M152.022 71.7941C104.895 72.2448 64.3875 92.723 64.3875 92.723L68.4313 66.7054" stroke="black" stroke-width="2.735" stroke-miterlimit="10"/>
<path d="M225.216 213.393C225.216 213.393 220.083 212.059 218.718 216.777C217.353 221.495 215.928 229 225.742 229.444C235.555 229.887 229.792 227.674 229.225 224.028C228.658 220.382 225.216 213.393 225.216 213.393Z" fill="#353642"/>
<path d="M146.8 127.184C146.8 127.184 141.262 122.365 136.274 127.25C136.064 127.462 135.881 127.707 135.729 127.977" stroke="black" stroke-width="2.735" stroke-miterlimit="10"/>
<g opacity="0.77">
<path opacity="0.77" d="M77.6115 66.2587C79.1948 68.6976 82.1588 69.4936 84.366 67.8216C85.7055 66.8039 86.4908 64.7757 85.3603 61.6425C85.5662 61.9878 85.753 62.2931 85.9367 62.573C88.223 66.1387 91.7665 63.9906 91.7665 63.9906C94.6418 62.2132 94.1573 59.2654 92.9002 55.6815C91.6699 52.1318 90.0559 48.7737 88.0963 45.686C89.3788 44.3084 90.902 42.9163 92.5075 43.5269C94.2397 44.1884 94.7242 46.6819 94.9205 48.761C95.0123 49.7278 95.1042 50.6837 95.196 51.6506L96.583 65.8843C97.0453 70.6095 97.5077 75.4037 98.5115 80.0162C99.0305 82.51 99.749 84.9435 100.659 87.2857C101.931 90.5508 103.73 93.5106 105.959 96.0091C108.741 92.8465 111.176 89.307 113.211 85.4683C115.158 86.1996 116.875 87.5721 118.148 89.4146C119.421 91.257 120.194 93.488 120.371 95.831V95.9509C121.156 104.46 114.019 110.853 108.021 114.786C101.092 119.359 93.3688 122.783 85.7815 125.629C82.6528 126.806 78.5868 127.81 75.284 126.581C74.9284 126.451 74.5813 126.292 74.2453 126.105C70.952 124.251 68.748 120.366 67.0285 116.814C58.7952 99.822 55.3752 80.3106 53.5733 60.9883C57.177 60.4176 60.768 59.7815 64.3147 58.9055C64.3147 58.9055 64.3147 58.9346 64.3368 58.9455L68.425 66.7275L68.7607 67.3745C69.6473 68.8284 71.1832 69.2173 72.6493 69.072C73.5816 69.0189 74.4771 68.6383 75.2143 67.9815C77.488 65.8007 75.3537 62.842 74.1757 60.7593" fill="white"/>
<path opacity="0.77" d="M77.6115 66.2587C79.1948 68.6976 82.1588 69.4936 84.366 67.8216C85.7055 66.8039 86.4908 64.7757 85.3603 61.6425C85.5662 61.9878 85.753 62.2931 85.9367 62.573C88.223 66.1387 91.7665 63.9906 91.7665 63.9906C94.6418 62.2132 94.1573 59.2654 92.9002 55.6815C91.6699 52.1318 90.0559 48.7737 88.0963 45.686C89.3788 44.3084 90.902 42.9163 92.5075 43.5269C94.2397 44.1884 94.7242 46.6819 94.9205 48.761C95.0123 49.7278 95.1042 50.6837 95.196 51.6506L96.583 65.8843C97.0453 70.6095 97.5077 75.4037 98.5115 80.0162C99.0305 82.51 99.749 84.9435 100.659 87.2857C101.931 90.5508 103.73 93.5106 105.959 96.0091C108.741 92.8465 111.176 89.307 113.211 85.4683C115.158 86.1996 116.875 87.5721 118.148 89.4146C119.421 91.257 120.194 93.488 120.371 95.831V95.9509C121.156 104.46 114.019 110.853 108.021 114.786C101.092 119.359 93.3688 122.783 85.7815 125.629C82.6528 126.806 78.5868 127.81 75.284 126.581C74.9284 126.451 74.5813 126.292 74.2453 126.105C70.952 124.251 68.748 120.366 67.0285 116.814C58.7952 99.822 55.3752 80.3106 53.5733 60.9883C57.177 60.4176 60.768 59.7815 64.3147 58.9055C64.3147 58.9055 64.3147 58.9346 64.3368 58.9455L68.425 66.7275L68.7607 67.3745C69.6473 68.8284 71.1832 69.2173 72.6493 69.072C73.5816 69.0189 74.4771 68.6383 75.2143 67.9815C77.488 65.8007 75.3537 62.842 74.1757 60.7593" fill="#3FBDF1"/>
<path opacity="0.77" d="M78.5837 67.4109C79.9865 69.5918 82.3837 69.3155 84.366 67.8217C85.563 66.913 86.5447 67.1783 85.5345 64.3759C85.7213 64.6812 85.7467 63.649 85.9113 63.878C87.9538 67.062 85.9367 62.5622 85.9367 62.5622C88.7867 66.6949 94.9902 62.8021 93.8533 59.6071C92.65 56.165 91.3833 51.0764 89.7778 48.532C91.0445 47.1581 90.8007 47.3616 92.4125 48.4557C92.8454 48.7748 93.208 49.2055 93.4711 49.7133C93.7346 50.2211 93.8913 50.7921 93.9293 51.3817C94.0592 52.7665 94.189 54.0932 94.3188 55.4453L95.5538 68.167C95.9687 72.3942 96.3803 76.665 97.2765 80.7796C97.7398 83.0044 98.3823 85.175 99.1955 87.2639C100.329 90.139 103.971 94.926 105.96 97.1178C108.433 94.3008 111.397 89.1213 113.211 85.6792C116.695 86.9077 116.543 90.7315 116.79 94.9078V95.0169C117.493 102.61 111.121 108.313 105.782 111.828C99.5945 115.909 92.7007 118.963 85.9272 121.507C83.1342 122.561 79.5052 123.47 76.557 122.357C76.2391 122.242 75.9287 122.1 75.6292 121.932C72.6905 120.275 70.7208 116.811 69.185 113.638C62.4622 99.7784 59.343 84.0436 57.6267 68.2687C57.5006 67.0882 57.779 65.8981 58.4028 64.9487C59.0267 63.9993 59.9472 63.3651 60.9707 63.1801C62.8992 62.8166 64.8213 62.4531 66.7308 61.9661L66.7847 61.9951L70.4327 68.9412C71.2275 70.2315 71.3573 69.221 72.6652 69.0902C73.4917 69.0066 75.094 68.8212 75.7337 68.2069C77.7635 66.266 76.6172 65.4627 75.5658 63.6053" fill="#3FBDF1"/>
</g>
<path d="M146.132 134.2C146.132 134.2 135.615 130.231 135.457 136.904" stroke="black" stroke-width="2.735" stroke-miterlimit="10"/>
<path opacity="0.54" d="M51.9963 202.179L31.3718 141.53C31.1163 140.356 31.0973 139.131 31.3158 137.948C31.5346 136.765 31.9855 135.654 32.6341 134.7C33.2829 133.747 34.1123 132.976 35.0597 132.445C36.0069 131.915 37.0471 131.64 38.101 131.64H120.023C121.862 131.639 123.648 132.35 125.093 133.657C126.538 134.964 127.557 136.791 127.987 138.844L150.565 199.479C150.809 200.648 150.819 201.866 150.594 203.041C150.369 204.216 149.915 205.317 149.267 206.261C148.618 207.206 147.791 207.969 146.848 208.494C145.905 209.019 144.871 209.292 143.823 209.292H59.9415C58.1156 209.294 56.3419 208.594 54.9024 207.305C53.4628 206.016 52.44 204.212 51.9963 202.179Z" fill="white"/>
<path d="M149.555 144.43C149.555 144.43 151.262 146.226 150.613 148.792C150.131 150.693 148.485 151.892 146.854 151.242C141.661 149.181 136.983 145.68 135.843 139.73C135.305 136.718 135.188 133.626 135.498 130.571C135.748 127.739 136.113 124.683 136.942 121.989C138.209 117.853 142.088 114.97 145.853 116.962" stroke="black" stroke-width="2.735" stroke-miterlimit="10"/>
<path d="M51.9963 202.179L31.3718 141.53C31.1163 140.356 31.0973 139.131 31.3158 137.948C31.5346 136.765 31.9855 135.654 32.6341 134.7C33.2829 133.747 34.1123 132.976 35.0597 132.445C36.0069 131.915 37.0471 131.64 38.101 131.64H120.023C121.862 131.639 123.648 132.35 125.093 133.657C126.538 134.964 127.557 136.791 127.987 138.844L150.565 199.479C150.809 200.648 150.819 201.866 150.594 203.041C150.369 204.216 149.915 205.317 149.267 206.261C148.618 207.206 147.791 207.969 146.848 208.494C145.905 209.019 144.871 209.292 143.823 209.292H59.9415C58.1156 209.294 56.3419 208.594 54.9024 207.305C53.4628 206.016 52.44 204.212 51.9963 202.179Z" fill="#3FBDF1"/>
<path d="M51.9963 202.179L31.3718 141.53C31.1163 140.356 31.0973 139.131 31.3158 137.948C31.5346 136.765 31.9855 135.654 32.6341 134.7C33.2829 133.747 34.1123 132.976 35.0597 132.445C36.0069 131.915 37.0471 131.64 38.101 131.64H120.023C121.862 131.639 123.648 132.35 125.093 133.657C126.538 134.964 127.557 136.791 127.987 138.844L150.565 199.479C150.809 200.648 150.819 201.866 150.594 203.041C150.369 204.216 149.915 205.317 149.267 206.261C148.618 207.206 147.791 207.969 146.848 208.494C145.905 209.019 144.871 209.292 143.823 209.292H59.9415C58.1156 209.294 56.3419 208.594 54.9024 207.305C53.4628 206.016 52.44 204.212 51.9963 202.179Z" stroke="black" stroke-width="2.735" stroke-linecap="square" stroke-linejoin="round"/>
<path d="M55.0142 199.737L35.9857 143.761C35.7504 142.679 35.7333 141.549 35.9353 140.457C36.1374 139.366 36.5535 138.341 37.1523 137.462C37.7508 136.582 38.5162 135.871 39.3898 135.382C40.2638 134.893 41.2233 134.638 42.1955 134.638H117.771C119.468 134.637 121.115 135.293 122.448 136.498C123.781 137.703 124.722 139.389 125.118 141.283L145.951 197.225C146.176 198.305 146.185 199.428 145.977 200.512C145.77 201.596 145.35 202.612 144.751 203.483C144.153 204.354 143.39 205.059 142.52 205.543C141.65 206.027 140.696 206.279 139.729 206.279H62.3418C60.66 206.281 59.026 205.638 57.6989 204.453C56.3714 203.268 55.4268 201.608 55.0142 199.737Z" fill="#3FBDF1"/>
<path d="M216.758 190.956L231.249 229.444" stroke="black" stroke-width="2.735" stroke-miterlimit="10"/>
<path d="M285.5 229.444H0.5" stroke="black" stroke-width="2.735" stroke-miterlimit="10"/>
<path d="M150.717 55.7317C148.367 58.396 144.859 58.3923 142.861 55.928" stroke="black" stroke-width="2.735" stroke-miterlimit="10"/>
<path d="M88.0963 45.6744C89.3788 44.2968 90.902 42.9047 92.5075 43.5153C94.2396 44.1768 94.7242 46.6703 94.9205 48.7494C95.4756 54.4632 96.0298 60.1712 96.583 65.873C97.286 73.1426 98.027 80.5861 100.658 87.2668C101.931 90.5319 103.73 93.4917 105.959 95.9902" stroke="black" stroke-width="2.735" stroke-miterlimit="10"/>
<path d="M120.371 95.9466V95.8267C120.194 93.4841 119.421 91.2527 118.148 89.4102C116.875 87.5681 115.158 86.1957 113.211 85.464C111.176 89.3027 108.741 92.8425 105.959 96.0048C98.6676 104.327 89.3003 109.839 79.1568 111.776C79.6445 114.004 80.6483 116.032 81.3418 118.177C82.0353 120.321 82.3805 122.804 81.5382 124.872C80.4742 127.511 77.4215 127.166 75.2998 126.58C75.2777 126.58 75.265 126.58 75.2428 126.58" stroke="black" stroke-width="2.735" stroke-miterlimit="10"/>
<path d="M64.321 58.9019C60.7743 59.7778 57.1833 60.4139 53.5797 60.9846C55.3815 80.3069 58.7888 99.8183 67.0348 116.811C68.7543 120.362 70.9583 124.247 74.2517 126.101C74.5876 126.288 74.9347 126.448 75.2903 126.577C78.5932 127.824 82.6592 126.803 85.7878 125.625C93.3878 122.775 101.099 119.355 108.027 114.783C114.009 110.846 121.147 104.456 120.377 95.9472C120.303 95.0102 120.136 94.0859 119.88 93.1921" stroke="black" stroke-width="2.735" stroke-miterlimit="10"/>
<path d="M123.626 20.3579C124.158 22.9015 125.371 25.1892 127.095 26.899C128.819 28.6091 130.968 29.6545 133.237 29.8882C133.426 28.8392 133.834 27.8582 134.428 27.0316C136.961 23.6041 138.041 30.0339 146.145 25.4178C157.374 19.0061 161.636 22.6845 161.636 22.6845C162.009 23.0043 161.953 25.9554 162.016 26.4933C162.333 29.5574 162.618 32.607 162.931 35.6674C163.121 37.5357 163.308 39.3898 163.485 41.2435C163.638 40.928 163.807 40.6231 163.992 40.3308C165.015 36.1763 166.842 31.2698 170.781 33.3815C171.579 33.8279 172.273 34.484 172.808 35.2967C175.42 39.2368 173.441 43.0424 170.708 45.8593C170.023 46.7334 169.258 47.5193 168.425 48.2041C168.875 49.2727 170.712 53.5144 170.712 53.529C170.902 53.9579 177.32 45.6194 177.799 44.7107C178.513 42.4848 178.896 40.1367 178.932 37.7651C179.037 28.013 175.579 16.6613 168.698 11.0674C166.991 9.6826 167.535 8.34865 167.431 6.46585C167.424 6.36407 167.39 6.26739 167.333 6.18815C167.277 6.10891 167.201 6.05112 167.116 6.02241C167.031 5.99369 166.94 5.99551 166.855 6.02713C166.771 6.05912 166.696 6.11945 166.642 6.20087C164.486 9.05052 159.147 8.767 159.147 8.767C140.616 3.43846 134.387 12.8961 130.647 14.5826C129.121 15.246 127.441 15.2779 125.897 14.6735C125.806 15.2601 125.577 15.8072 125.235 16.2557C124.893 16.7042 124.451 17.0368 123.956 17.2178L124.051 18.2025C124.131 18.9559 123.981 19.7178 123.626 20.3579Z" fill="#3FBDF1"/>
<path d="M133.25 29.9042C130.98 29.6702 128.832 28.6248 127.108 26.915C125.384 25.2052 124.17 22.9172 123.639 20.3739C123.431 19.3984 123.3 18.4032 123.246 17.4007L123.392 17.3825C123.591 17.3654 123.787 17.3164 123.975 17.2371C124.47 17.0561 124.912 16.7235 125.254 16.275C125.596 15.8268 125.825 15.2795 125.916 14.6928C125.974 14.3675 125.986 14.0335 125.951 13.7042L125.476 8.89174C125.476 8.89174 128.826 11.7523 132.544 10.0803C136.261 8.40832 142.503 -1.0493 161.044 4.2647C161.044 4.2647 165.23 4.54821 167.377 1.69857C167.431 1.61715 167.505 1.55681 167.59 1.52518C167.674 1.4932 167.765 1.49174 167.851 1.52046C167.936 1.54917 168.012 1.60697 168.068 1.68585C168.124 1.76508 168.158 1.86213 168.165 1.9639C168.276 3.85034 168.884 5.18429 170.594 6.5655C177.476 12.163 180.934 23.5107 180.826 33.2628C180.794 37.3082 179.623 41.3028 177.814 44.7304C177.336 45.6391 170.917 53.9772 170.727 53.5483C170.727 53.5483 168.891 49.292 168.441 48.2234L168.333 47.9871L168.539 47.8308C169.304 47.2351 170.034 46.583 170.724 45.879C173.454 43.062 175.436 39.2565 172.824 35.3164C172.289 34.5037 171.595 33.8472 170.797 33.4009C166.845 31.2891 165.031 36.196 164.008 40.3505C163.809 41.1444 163.687 41.9611 163.644 42.7858C163.596 42.2769 163.549 41.7862 163.501 41.2774C163.324 39.4237 163.137 37.5699 162.947 35.7017C162.63 32.6412 162.332 29.5917 162.032 26.5276C161.984 26.0042 162.032 23.0382 161.652 22.7183C161.652 22.7183 157.386 19.04 146.16 25.4517C138.057 30.0678 136.977 23.6343 134.444 27.0655C133.85 27.8924 133.441 28.8731 133.253 29.9224C133.195 30.2594 133.158 30.6007 133.142 30.9438C133.136 30.9881 133.136 31.0336 133.142 31.0783C133.104 31.8307 133.092 32.5794 133.076 33.3136C133.016 40.3978 133.693 47.7981 136.116 54.377C139.061 62.3517 146.854 70.2173 154.957 66.4989C157.491 65.3322 159.761 63.453 161.839 61.4575" stroke="black" stroke-width="2.735" stroke-miterlimit="10"/>
<path d="M138.795 47.1817C139.601 46.872 139.99 45.7136 139.664 44.5944C139.338 43.4749 138.42 42.8185 137.613 43.1282C136.808 43.4375 136.419 44.5959 136.745 45.7154C137.071 46.8349 137.989 47.4913 138.795 47.1817Z" fill="black"/>
<path d="M150.853 46.7386C151.659 46.4293 152.047 45.2709 151.721 44.1514C151.395 43.0319 150.477 42.3755 149.671 42.6852C148.865 42.9949 148.476 44.1533 148.802 45.2724C149.128 46.3919 150.046 47.0483 150.853 46.7386Z" fill="black"/>
<path d="M146.243 49.1357C146.243 49.1357 142.23 51.7491 141.987 49.0376C141.911 48.2016 140.929 40.0125 140.929 40.0125C140.929 40.0125 137.686 36.0688 132.718 38.9839" stroke="black" stroke-width="2.735" stroke-miterlimit="10"/>
<path d="M145.34 37.7178C145.34 37.7178 151.819 34.0031 156.107 39.3571" stroke="black" stroke-width="2.735" stroke-miterlimit="10"/>
<path d="M151.281 67.4109L152.025 71.7944C149.678 74.2769 148.019 77.8354 148.504 81.5828C148.934 84.905 151.303 87.9981 153.732 89.7392C157.792 92.647 163.191 92.418 167.561 90.5679C171.832 88.7505 175.528 85.3011 178.207 81.0921C179.469 79.0574 180.309 76.7191 180.664 74.2551V74.2115" stroke="black" stroke-width="2.735" stroke-miterlimit="10"/>
<path d="M152.025 71.7941L153.475 79.7106" stroke="black" stroke-width="2.735" stroke-miterlimit="10"/>
<path d="M172.536 51.6396L174.727 68.3413C174.943 69.9762 175.663 71.4679 176.756 72.5449C177.849 73.6223 179.242 74.2136 180.683 74.2115C187.503 75.48 194.231 77.3315 200.811 79.7508C226.514 89.2666 242.335 115.844 246.803 145.54C248.662 157.974 248.801 171.016 246.468 183.381C245.141 190.342 243.222 198.16 238.766 203.372C232.981 210.169 224.102 207.371 217.265 204.299C196.039 194.823 178.384 177.965 163.14 158.665C154.989 148.342 144.457 140.07 144.457 140.07" stroke="black" stroke-width="2.735" stroke-miterlimit="10"/>
<path d="M62.0283 187.209C59.647 187.184 57.5728 184.977 57.0377 181.906C55.98 175.865 55.7013 166.524 63.4185 164.485C73.061 161.94 80.4773 173.993 84.1127 181.612C85.335 184.156 83.9512 187.427 81.6743 187.427L62.0283 187.209Z" fill="#D7E8F0"/>
<path d="M65.2118 159.355C67.2587 157.792 67.2904 153.716 65.2818 150.251C63.2735 146.787 59.9858 145.245 57.9386 146.809C55.8913 148.373 55.86 152.449 57.8683 155.913C59.8769 159.378 63.1645 160.919 65.2118 159.355Z" fill="#D7E8F0"/>
<path d="M223.677 213.592C223.528 213.618 223.361 213.643 223.215 213.683H223.158L200.633 213.549L166.836 213.349C166.706 213.349 166.579 213.349 166.452 213.349C166.201 213.342 165.951 213.32 165.702 213.283C167.992 212.978 170.114 211.755 171.696 209.831C173.278 207.906 174.218 205.402 174.35 202.761C174.356 202.624 174.356 202.487 174.35 202.35V202.139C174.341 199.554 173.556 197.052 172.128 195.054C170.7 193.055 168.716 191.682 166.509 191.166C166.278 191.1 166.025 191.06 165.781 191.02C166.164 190.98 166.544 190.951 166.915 190.951L195.469 191.126L200.725 191.151L207.815 191.191C210.243 191.446 212.501 192.73 214.147 194.794C215.793 196.858 216.71 199.552 216.717 202.35C216.717 202.878 216.682 203.406 216.612 203.927C216.275 206.591 215.115 209.028 213.345 210.793C211.575 212.559 209.312 213.537 206.967 213.549H224.124C223.136 213.549 223.411 213.549 223.677 213.592Z" fill="white"/>
<path d="M177.988 227.111C178.632 227.854 179.397 228.443 180.24 228.843C181.084 229.244 181.988 229.448 182.9 229.445H166.313C163.146 229.445 161.417 228.558 160.157 227.111C158.862 225.618 158.133 223.599 158.127 221.492C158.127 217.13 161.243 213.554 166.313 213.554H182.9C181.531 213.551 180.192 214.015 179.052 214.888C177.913 215.76 177.025 217 176.5 218.452C175.976 219.904 175.839 221.503 176.107 223.044C176.374 224.586 177.035 226.001 178.004 227.111H177.988Z" fill="#D7E8F0"/>
<path d="M232.769 202.55C232.765 204.229 232.424 205.884 231.774 207.388C231.31 208.525 230.673 209.557 229.893 210.437C228.607 211.9 226.992 212.923 225.229 213.392C224.502 213.585 223.758 213.683 223.012 213.683C223.164 213.643 223.329 213.618 223.474 213.592C223.208 213.563 222.933 213.552 223.924 213.552H206.764C209.111 213.542 211.376 212.564 213.148 210.798C214.919 209.031 216.079 206.593 216.416 203.927C216.486 203.405 216.521 202.878 216.52 202.35C216.513 199.551 215.596 196.857 213.949 194.793C212.302 192.729 210.044 191.445 207.616 191.191L216.878 191.246L223.066 191.286C225.652 191.311 228.124 192.509 229.942 194.62C231.76 196.731 232.776 199.582 232.769 202.55Z" fill="#3FBDF1"/>
<path d="M232.769 202.547C232.749 205.517 231.706 208.357 229.865 210.445C228.026 212.533 225.539 213.699 222.952 213.687L166.611 213.353C166.234 213.353 165.857 213.32 165.477 213.277C167.852 212.968 170.046 211.67 171.642 209.628C173.239 207.587 174.128 204.944 174.141 202.2C174.153 199.457 173.288 196.804 171.71 194.743C170.132 192.683 167.95 191.358 165.578 191.021C165.955 190.976 166.333 190.954 166.712 190.956L223.053 191.29C225.64 191.31 228.115 192.506 229.936 194.616C231.757 196.725 232.775 199.577 232.769 202.547Z" stroke="black" stroke-width="2.735" stroke-linecap="square" stroke-linejoin="round"/>
<path d="M216.514 202.347C216.509 205.316 215.479 208.162 213.65 210.261C211.821 212.361 209.341 213.543 206.755 213.549H166.668C166.289 213.546 165.911 213.522 165.534 213.476C167.907 213.153 170.095 211.841 171.682 209.791C173.269 207.74 174.146 205.092 174.146 202.348C174.146 199.605 173.269 196.957 171.682 194.906C170.095 192.856 167.907 191.544 165.534 191.221C165.911 191.181 166.291 191.152 166.668 191.152H206.755C209.34 191.158 211.818 192.34 213.647 194.437C215.476 196.535 216.507 199.379 216.514 202.347Z" stroke="black" stroke-width="2.735" stroke-linecap="square" stroke-linejoin="round"/>
<path d="M158.127 221.494C158.127 222.537 158.306 223.569 158.653 224.532C159.001 225.495 159.511 226.37 160.154 227.106C161.42 228.56 163.14 229.443 166.31 229.443H223.921C222.93 229.443 223.199 229.422 223.468 229.393C221.783 229.165 220.228 228.235 219.1 226.779C217.972 225.323 217.35 223.442 217.35 221.494C217.35 219.546 217.972 217.666 219.1 216.21C220.228 214.754 221.783 213.824 223.468 213.596C223.199 213.567 222.93 213.545 223.921 213.545H166.31C161.237 213.549 158.127 217.125 158.127 221.494Z" stroke="black" stroke-width="2.735" stroke-linecap="square" stroke-linejoin="round"/>
<path d="M175.956 221.494C175.96 223.601 176.691 225.62 177.988 227.11C179.287 228.6 181.046 229.439 182.881 229.443H222.664C222.93 229.443 223.199 229.422 223.468 229.393C221.783 229.165 220.228 228.235 219.1 226.779C217.972 225.323 217.35 223.442 217.35 221.494C217.35 219.546 217.972 217.666 219.1 216.21C220.228 214.754 221.783 213.824 223.468 213.596C223.199 213.567 222.93 213.545 222.664 213.545H182.881C181.046 213.551 179.287 214.39 177.989 215.88C176.692 217.369 175.961 219.388 175.956 221.494Z" stroke="black" stroke-width="2.735" stroke-linecap="square" stroke-linejoin="round"/>
<path d="M111.466 160.845H93.695C92.8818 160.844 92.0867 160.571 91.4065 160.06C90.7263 159.549 90.1901 158.822 89.8633 157.967C89.7373 157.649 89.6832 157.299 89.7066 156.95C89.7297 156.602 89.8295 156.266 89.9963 155.973C90.1632 155.681 90.3919 155.442 90.661 155.278C90.9302 155.115 91.2307 155.032 91.5353 155.037H110.428C109.538 156.756 109.991 159.144 111.466 160.845Z" fill="#D7E8F0"/>
<path d="M122.958 158.744C122.957 159.3 122.765 159.833 122.422 160.226C122.08 160.619 121.616 160.84 121.131 160.841H111.466C109.991 159.144 109.538 156.756 110.428 155.025H118.962C119.774 155.026 120.569 155.297 121.249 155.805C121.93 156.313 122.468 157.038 122.797 157.89C122.899 158.16 122.954 158.45 122.958 158.744Z" fill="#3FBDF1"/>
<path d="M118.512 160.845C118.462 160.956 118.404 161.062 118.338 161.161C117.071 163.15 114.319 163.342 112.182 161.547C111.929 161.333 111.69 161.098 111.466 160.845C109.991 159.148 109.538 156.76 110.428 155.03C110.478 154.919 110.536 154.813 110.602 154.713C111.869 152.711 114.608 152.532 116.745 154.313C117.003 154.534 117.245 154.778 117.47 155.04C118.933 156.731 119.389 159.104 118.512 160.845Z" fill="white"/>
<path d="M127.426 171.55C127.423 172.107 127.228 172.639 126.884 173.031C126.54 173.423 126.074 173.644 125.59 173.644H106.941C107.84 171.906 107.391 169.536 105.912 167.828H123.43C124.244 167.828 125.039 168.1 125.72 168.611C126.401 169.121 126.938 169.848 127.265 170.703C127.369 170.97 127.424 171.258 127.426 171.55Z" fill="#3FBDF1"/>
<path d="M106.941 173.643H98.1663C97.3541 173.643 96.5589 173.373 95.8781 172.864C95.1973 172.356 94.6599 171.631 94.3315 170.778C94.2279 170.512 94.1732 170.224 94.17 169.932C94.1697 169.657 94.2165 169.384 94.3081 169.13C94.3996 168.876 94.5338 168.645 94.7033 168.45C94.8727 168.256 95.0741 168.101 95.2954 167.996C95.5171 167.891 95.7543 167.838 95.994 167.838H105.912C107.391 169.535 107.85 171.905 106.941 173.643Z" fill="#D7E8F0"/>
<path d="M106.941 173.643C106.9 173.757 106.846 173.865 106.78 173.963C105.513 175.962 102.771 176.144 100.636 174.359C100.378 174.138 100.135 173.895 99.908 173.632C98.4418 171.935 97.9922 169.565 98.8693 167.817C98.92 167.705 98.9783 167.598 99.0435 167.497C100.31 165.508 103.062 165.316 105.196 167.115C105.451 167.327 105.69 167.561 105.912 167.817C107.391 169.536 107.85 171.906 106.941 173.643Z" fill="white"/>
<path d="M113.154 186.355H101.988C101.177 186.353 100.382 186.082 99.7018 185.574C99.021 185.066 98.4833 184.342 98.1537 183.49C98.0279 183.171 97.9744 182.821 97.9979 182.472C98.0216 182.123 98.1214 181.786 98.2882 181.493C98.4554 181.2 98.6841 180.959 98.9532 180.795C99.2227 180.63 99.5236 180.546 99.8288 180.55H112.115C111.235 182.291 111.688 184.657 113.154 186.355Z" fill="#3FBDF1"/>
<path d="M131.249 184.275C131.246 184.828 131.052 185.358 130.711 185.747C130.369 186.137 129.906 186.355 129.425 186.354H113.154C111.688 184.657 111.235 182.287 112.116 180.539H127.252C128.065 180.539 128.861 180.811 129.542 181.321C130.223 181.832 130.76 182.559 131.087 183.414C131.191 183.685 131.246 183.978 131.249 184.275Z" fill="#D7E8F0"/>
<path d="M120.2 186.355C120.149 186.466 120.091 186.573 120.026 186.674C118.759 188.674 116.02 188.855 113.883 187.071C113.626 186.849 113.383 186.606 113.157 186.344C111.691 184.646 111.238 182.276 112.119 180.528C112.167 180.416 112.224 180.308 112.29 180.208C113.556 178.22 116.308 178.049 118.446 179.827C118.7 180.038 118.939 180.273 119.161 180.528C120.637 182.247 121.087 184.632 120.2 186.355Z" fill="white"/>
<path d="M35.8432 70.475L36.1218 70.5658L36.0173 71.0311C35.9512 70.8494 35.8929 70.6636 35.8432 70.475Z" fill="#353642"/>
<path d="M85.4002 99.5545C89.5688 98.15 91.7589 92.3627 90.2924 86.6285C88.8259 80.8947 84.258 77.3846 80.0897 78.7891C75.9211 80.1939 73.7311 85.9808 75.1976 91.715C76.664 97.4492 81.2319 100.959 85.4002 99.5545Z" fill="#D7E8F0"/>
</svg>
